<?xml version="1.0" encoding="UTF-8"?>
<!DOCTYPE svg PUBLIC "-//W3C//DTD SVG 1.1//EN" "http://www.w3.org/Graphics/SVG/1.1/DTD/svg11.dtd">
<!-- Creator: CorelDRAW 2018 (64-Bit Evaluation Version) -->
<svg xmlns="http://www.w3.org/2000/svg" xml:space="preserve" width="208.32mm" height="272.12mm" version="1.1" style="shape-rendering:geometricPrecision; text-rendering:geometricPrecision; image-rendering:optimizeQuality; fill-rule:evenodd; clip-rule:evenodd"
viewBox="0 0 28023.48 36606"
 xmlns:xlink="http://www.w3.org/1999/xlink">
 <defs>
  <style type="text/css">
   <![CDATA[
    .str0 {stroke:#3E4095;stroke-width:677.99;stroke-miterlimit:22.9256}
    .str1 {stroke:#3E4095;stroke-width:23.73;stroke-miterlimit:22.9256}
    .str2 {stroke:#3E4095;stroke-width:971.78;stroke-linecap:round;stroke-miterlimit:22.9256}
    .fil3 {fill:none}
    .fil0 {fill:#FEFEFE}
    .fil1 {fill:#3E4095}
    .fil2 {fill:black}
   ]]>
  </style>
 </defs>
 <g id="Layer_x0020_1">
  <metadata id="CorelCorpID_0Corel-Layer"/>
  <circle class="fil0 str0" cx="14011.74" cy="18495.1" r="13672.75"/>
  <circle class="fil0 str0" cx="14011.74" cy="18495.1" r="11525.79"/>
  <path class="fil0 str0" d="M22626.7 10040.63c2171.25,1039.55 3632.65,541.76 4557.43,-680.49 -1882.55,-303.13 -3554.91,-2173.02 -5188.19,-3345.2 -3553.11,-2549.46 -5642.44,-1306.26 -7989.18,-5340.74 -2346.51,4033.8 -4435.84,2790.59 -7988.95,5340.05 -1633.72,1172.11 -3305.42,3041.9 -5186.6,3345.2 924.96,1222.23 2386.29,1720.06 4557.43,680.48 2425.84,2625.4 3225.63,-4340.48 8618.12,234.23 5392.72,-4573.93 6192.51,2391.94 8619.02,-233.45l0.91 -0.08z"/>
  <circle class="fil1 str1" cx="14011.74" cy="6110.52" r="1559.37"/>
  <g>
   <path id="repu" class="fil2" d="M10439.2 6486.58c-1705.6,620.02 -2576.35,1060.65 -3738.43,1887.72l3738.43 -1887.72zm0 0l0 0 0 0z"/>
   <path id="1" class="fil3 str2" d="M10439.2 6486.58c-1705.6,620.02 -2576.35,1060.65 -3738.43,1887.72m3738.43 -1887.72l0 0 0 0z"/>
  </g>
  <g>
   <g>
    <path class="fil2" d="M17539.08 6486.58c1705.6,620.02 2576.35,1060.65 3738.43,1887.72l-3738.43 -1887.72zm0 0l0 0 0 0z"/>
    <path id="1" class="fil3 str2" d="M17539.08 6486.58c1705.6,620.02 2576.35,1060.65 3738.43,1887.72m-3738.43 -1887.72l0 0 0 0z"/>
   </g>
  </g>
  <path class="fil0 str0" d="M22626.7 26565.37c2171.25,-1039.55 3632.65,-541.76 4557.43,680.49 -1882.55,303.13 -3554.91,2173.02 -5188.19,3345.2 -3553.11,2549.46 -5642.44,1306.26 -7989.18,5340.74 -2346.51,-4033.8 -4435.84,-2790.59 -7988.95,-5340.05 -1633.72,-1172.11 -3305.42,-3041.9 -5186.6,-3345.2 924.96,-1222.23 2386.29,-1720.06 4557.43,-680.48 2425.84,-2625.4 3225.63,4340.48 8618.12,-234.23 5392.72,4573.93 6192.51,-2391.94 8619.02,233.45l0.91 0.08z"/>
  <circle class="fil1 str1" cx="14011.74" cy="30495.47" r="1559.37"/>
  <g>
   <path class="fil2" d="M10439.2 30119.42c-1705.6,-620.02 -2576.35,-1060.65 -3738.43,-1887.72l3738.43 1887.72zm0 0l0 0 0 0z"/>
   <path id="1" class="fil3 str2" d="M10439.2 30119.42c-1705.6,-620.02 -2576.35,-1060.65 -3738.43,-1887.72m3738.43 1887.72l0 0 0 0z"/>
  </g>
  <g>
   <path class="fil2" d="M17539.08 30119.42c1705.6,-620.02 2576.35,-1060.65 3738.43,-1887.72l-3738.43 1887.72zm0 0l0 0 0 0z"/>
   <path id="1" class="fil3 str2" d="M17539.08 30119.42c1705.6,-620.02 2576.35,-1060.65 3738.43,-1887.72m-3738.43 1887.72l0 0 0 0z"/>
  </g>
 </g>
</svg>
